<?xml version="1.0" encoding="utf-8"?>
<!-- Generator: Adobe Illustrator 30.5.1, SVG Export Plug-In . SVG Version: 9.03 Build 0)  -->
<svg version="1.1" baseProfile="tiny" id="Capa_1" xmlns="http://www.w3.org/2000/svg" xmlns:xlink="http://www.w3.org/1999/xlink"
	 x="0px" y="0px" viewBox="0 0 1312.02 298.32" overflow="visible" xml:space="preserve">
<g>
	<path fill="#8100DD" d="M169.78,93.26c-19.73,0-34.46,17.37-34.46,43v80.4h-34.16V66.75h33.28v26.8
		c9.42-18.85,26.8-30.33,49.47-30.33c32.69,0,54.77,23.85,54.77,63.91v89.53h-34.46v-80.4C204.23,109.16,191.28,93.26,169.78,93.26z
		"/>
	<path fill="#8100DD" d="M251.45,141.55c0-43.29,34.46-78.34,77.16-78.34c42.41,0,76.86,35.04,76.86,78.63s-34.46,78.34-76.86,78.34
		C285.91,220.18,251.45,185.14,251.45,141.55z M328.61,189.26c24.15,0,43-21.2,43-47.41s-18.85-47.71-43-47.71s-43.29,21.5-43.29,48
		C285.32,168.06,304.46,189.26,328.61,189.26z"/>
	<path fill="#8100DD" d="M415.17,141.55c0-43.29,34.46-78.34,77.16-78.34c42.41,0,76.86,35.04,76.86,78.63s-34.45,78.34-76.86,78.34
		C449.62,220.18,415.17,185.14,415.17,141.55z M492.32,189.26c24.15,0,43-21.2,43-47.41s-18.85-47.71-43-47.71s-43.29,21.5-43.29,48
		C449.03,168.06,468.18,189.26,492.32,189.26z"/>
	<path fill="#8100DD" d="M583.12,63.22h33.87v63.61l56.84-60.08h42.11l-56.54,58.9l56.54,91h-36.22l-44.47-69.8l-18.85,20.03v49.77
		h-33.28V63.22z"/>
	<path fill="#8100DD" d="M731.82,66.75h31.51v22.97c11.78-15.61,29.16-26.5,48.59-26.5c39.46,0,71.56,34.16,71.56,78.63
		c0,44.17-31.22,78.34-69.8,78.34c-19.14,0-35.93-9.13-47.71-22.97v75.68h-34.16L731.82,66.75L731.82,66.75z M806.62,189.56
		c23.85,0,42.11-21.2,42.11-48c0-26.51-18.26-48-42.11-48c-25.03,0-43,20.91-43,48S781.59,189.56,806.62,189.56z"/>
	<path fill="#8100DD" d="M897.42,25.42h34.16v191.22h-34.16V25.42z"/>
	<path fill="#8100DD" d="M32.45,99.22h34.16v81.43H32.45V99.22z"/>
	<path fill="#8100DD" d="M1248.05,95.78l31.52,13.17l-31.39,75.14l-31.52-13.17L1248.05,95.78z"/>
	<path fill="#8100DD" d="M1044.68,193.97c-11.78,17.08-31.22,26.21-52.13,26.21c-28.57,0-46.23-16.2-46.23-43.88
		c0-31.81,24.15-50.65,65.97-50.65h31.22v-2.36c0-18.55-13.84-30.92-40.05-30.92c-16.79,0-32.1,4.71-46.53,15.31V77.94
		c15.02-10.01,32.39-14.72,53.01-14.72c45.65,0,66.26,27.68,66.26,66.56v86.87h-31.51v-22.68H1044.68z M1002.57,193.38
		c21.79,0,41.52-14.43,41.52-32.69v-10.6h-31.8c-23.26,0-34.75,7.36-34.75,22.38C977.54,185.73,986.37,193.38,1002.57,193.38z"/>
	<path fill="#8100DD" d="M1101.36,227.64c17.37,0,29.74-8.83,38.28-25.92l-68.03-138.51h37.99l45.94,100.81l36.81-100.81h37.7
		l-58.02,137.33c-14.43,37.99-39.76,57.43-70.68,57.43v-30.33H1101.36z"/>
</g>
</svg>
