<?xml version="1.0" encoding="utf-8"?>
<!-- Generator: Adobe Illustrator 30.5.1, SVG Export Plug-In . SVG Version: 9.03 Build 0)  -->
<svg version="1.1" baseProfile="tiny" id="Capa_1" xmlns="http://www.w3.org/2000/svg" xmlns:xlink="http://www.w3.org/1999/xlink"
	 x="0px" y="0px" viewBox="0 0 802.29 368.77" overflow="visible" xml:space="preserve">
<g>
	<path fill="#FFFFFF" d="M283.37,264.42c-31.2-4.95-34.61-8.58-34.61-15.14c0-9.46,13.23-16.86,30.11-16.86
		c17.58,0,29.35,7.66,32.27,21.03l0.75,3.42h33.66l-0.53-4.82c-3.45-31.63-28.8-51.29-66.15-51.29c-43.86,0-63.84,25.6-63.84,49.39
		c0,35.03,31.09,42.43,62.96,47.02c37.46,5.05,37.46,12.6,37.46,19.25c0,10.13-11.56,20.39-33.65,20.39
		c-20.39,0-35.35-9.81-38.14-25.01l-0.65-3.56h-33.88l0.63,4.9c4.34,33.79,32.61,55.63,72.04,55.63c39.76,0,66.48-21.62,66.48-53.82
		C348.28,274.66,312.29,268.98,283.37,264.42z"/>
	<path fill="#FFFFFF" d="M441.92,201.06c-45.21,0-80.62,37.09-80.62,84.45c0,46.69,35.41,83.27,80.62,83.27
		c45.2,0,80.61-36.58,80.61-83.27C522.53,238.14,487.12,201.06,441.92,201.06z M441.92,337.11c-25.7,0-46.61-23.15-46.61-51.61
		c0-29.11,20.91-52.79,46.61-52.79c25.86,0,46.89,23.68,46.89,52.79C488.81,313.96,467.78,337.11,441.92,337.11z"/>
	<path fill="#FFFFFF" d="M721.67,201.06c-45.21,0-80.62,37.09-80.62,84.45c0,46.69,35.41,83.27,80.62,83.27
		c45.21,0,80.62-36.58,80.62-83.27C802.29,238.14,766.88,201.06,721.67,201.06z M721.67,337.11c-25.7,0-46.61-23.15-46.61-51.61
		c0-29.11,20.91-52.79,46.61-52.79c25.85,0,46.89,23.68,46.89,52.79C768.56,313.96,747.52,337.11,721.67,337.11z"/>
	<path fill="#FFFFFF" d="M293.85,0.58v15.35c-13.13-9.69-29.26-15.35-46.89-15.35c-45.21,0-80.62,37.09-80.62,84.45
		c0,46.69,35.41,83.27,80.62,83.27c17.63,0,33.76-5.58,46.89-15.14v11.03h33.72V0.58H293.85z M246.96,136.64
		c-25.7,0-46.61-23.15-46.61-51.61c0-29.11,20.91-52.79,46.61-52.79c25.86,0,46.89,23.68,46.89,52.79
		C293.85,113.49,272.82,136.64,246.96,136.64z"/>
	<path fill="#FFFFFF" d="M748.07,85.03C748.07,85.03,748.07,85.03,748.07,85.03l0-84.45h-33.72v15.35
		c-13.13-9.69-29.26-15.35-46.89-15.35c-45.21,0-80.62,37.09-80.62,84.45c0,46.69,35.41,83.27,80.62,83.27
		c17.63,0,33.76-5.58,46.89-15.14v11.03h33.72L748.07,85.03C748.07,85.03,748.07,85.03,748.07,85.03z M667.46,136.64
		c-25.7,0-46.61-23.15-46.61-51.61c0-29.11,20.91-52.79,46.61-52.79c25.86,0,46.89,23.68,46.89,52.79
		C714.35,113.49,693.32,136.64,667.46,136.64z"/>
	<g>
		<path fill="#FFFFFF" d="M608.57,335.93c-20.82,0-34.81-14.23-34.81-35.41v-63.09h55.05v-32.54h-55.05V65.89
			C573.75,25.25,550.53,0,513.16,0c-19.69,0-36.26,7.92-47.36,22.46C455.01,7.92,438.6,0,418.92,0c-13.72,0-26.16,4.72-36,13.49
			V3.83h-32.84v160.35h33.73V67.07c0-20.18,13.58-35.41,31.58-35.41c19.23,0,29.81,11.95,29.81,33.64v98.88h33.43V67.07
			c0-20.52,13.16-35.41,31.29-35.41c19.98,0,30.11,11.32,30.11,33.64v235.22c0,39.55,28.83,68.25,68.54,68.25
			c11.81,0,22.8-2.83,36.92-11.18l-17.42-26.66C624.02,332.91,617.29,335.93,608.57,335.93z"/>
	</g>
	<g>
		<path fill="#FFFFFF" d="M121.5,0.58v86.31c0,26.43-18.02,44.89-43.82,44.89c-26.01,0-44.17-18.46-44.17-44.89V0.58H0v86.31
			c0,45.74,31.94,77.68,77.67,77.68c17.89,0,32.6-5.13,43.82-15.26v47.33c0,21.51-10.91,37.13-28.73,42.65l18.64,28.53
			c27.35-11.62,43.94-38.04,43.94-71.18V0.58H121.5z"/>
	</g>
</g>
</svg>
