<?xml version="1.0" encoding="UTF-8"?>
<svg id="Capa_1" xmlns="http://www.w3.org/2000/svg" version="1.1" viewBox="0 0 1200 630">
  <!-- Generator: Adobe Illustrator 30.5.1, SVG Export Plug-In . SVG Version: 2.1.4 Build 3)  -->
  <defs>
    <style>
      .st0 {
        opacity: .2;
      }

      .st0, .st1 {
        fill: #f7f2eb;
      }

      .st2 {
        fill: #c4622d;
      }

      .st3 {
        font-family: ArialMT, Arial;
        font-size: 32px;
        isolation: isolate;
      }
    </style>
  </defs>
  <rect class="st2" width="1200" height="630"/>
  <text class="st3" transform="translate(366.98 370)"><tspan x="0" y="0">El pasatiempo diario, en tu mesa</tspan></text>
  <g>
    <path class="st1" d="M417.93,245.98c-7.36,0-12.85,6.48-12.85,16.03v29.97h-12.74v-55.88h12.41v9.99c3.51-7.03,9.99-11.31,18.44-11.31,12.19,0,20.42,8.89,20.42,23.82v33.38h-12.85v-29.97c0-10.1-4.83-16.03-12.85-16.03Z"/>
    <path class="st1" d="M448.38,263.99c0-16.14,12.85-29.2,28.76-29.2s28.65,13.06,28.65,29.31-12.85,29.2-28.65,29.2-28.76-13.07-28.76-29.31ZM477.15,281.77c9,0,16.03-7.9,16.03-17.68s-7.03-17.79-16.03-17.79-16.14,8.01-16.14,17.9,7.14,17.57,16.14,17.57Z"/>
    <path class="st1" d="M509.41,263.99c0-16.14,12.85-29.2,28.76-29.2s28.65,13.06,28.65,29.31-12.84,29.2-28.65,29.2-28.76-13.07-28.76-29.31ZM538.18,281.77c9,0,16.03-7.9,16.03-17.68s-7.03-17.79-16.03-17.79-16.14,8.01-16.14,17.9,7.14,17.57,16.14,17.57Z"/>
    <path class="st1" d="M572.03,234.79h12.63v23.71l21.19-22.4h15.7l-21.08,21.96,21.08,33.92h-13.5l-16.58-26.02-7.03,7.47v18.55h-12.41v-57.2Z"/>
    <path class="st1" d="M627.46,236.1h11.75v8.56c4.39-5.82,10.87-9.88,18.12-9.88,14.71,0,26.68,12.74,26.68,29.31s-11.64,29.2-26.02,29.2c-7.14,0-13.39-3.4-17.79-8.56v28.22h-12.74v-76.85ZM655.35,281.88c8.89,0,15.7-7.91,15.7-17.9s-6.81-17.9-15.7-17.9c-9.33,0-16.03,7.8-16.03,17.9s6.7,17.9,16.03,17.9Z"/>
    <path class="st1" d="M689.2,220.7h12.74v71.29h-12.74v-71.29Z"/>
    <path class="st1" d="M366.74,248.21h12.74v30.36h-12.74v-30.36Z"/>
    <path class="st1" d="M819.91,246.92l11.75,4.91-11.7,28.01-11.75-4.91,11.7-28.01Z"/>
    <path class="st1" d="M744.1,283.53c-4.39,6.37-11.64,9.77-19.43,9.77-10.65,0-17.24-6.04-17.24-16.36,0-11.86,9-18.88,24.59-18.88h11.64v-.88c0-6.92-5.16-11.53-14.93-11.53-6.26,0-11.97,1.76-17.35,5.71v-11.09c5.6-3.73,12.08-5.49,19.76-5.49,17.02,0,24.7,10.32,24.7,24.81v32.39h-11.75v-8.45ZM728.4,283.31c8.12,0,15.48-5.38,15.48-12.19v-3.95h-11.86c-8.67,0-12.95,2.74-12.95,8.34,0,4.94,3.29,7.8,9.33,7.8Z"/>
    <path class="st1" d="M765.23,296.08c6.48,0,11.09-3.29,14.27-9.66l-25.36-51.64h14.16l17.13,37.58,13.72-37.58h14.05l-21.63,51.2c-5.38,14.16-14.82,21.41-26.35,21.41v-11.31Z"/>
  </g>
  <path class="st0" d="M37,113.07h169.44v403.87H37V113.07Z"/>
  <path class="st0" d="M1022.53,96.01l156.35,65.31-155.66,372.67-156.35-65.31,155.66-372.67Z"/>
</svg>